<?xml version="1.0" encoding="utf-8"?>
<!-- Generator: Adobe Illustrator 25.4.1, SVG Export Plug-In . SVG Version: 6.00 Build 0)  -->
<svg version="1.1" id="katman_1" xmlns="http://www.w3.org/2000/svg" xmlns:xlink="http://www.w3.org/1999/xlink" x="0px" y="0px"
	 viewBox="0 0 40 40" style="enable-background:new 0 0 40 40;" xml:space="preserve">
<style type="text/css">
	.st0{fill:#FFD400;}
	.st1{fill:#FFC000;}
	.st2{fill:#FFDF00;}
	.st3{fill:#FF9E00;}
	.st4{fill:#FCF600;}
	.st5{fill:#841918;}
</style>
<g>
	<g>
		<path class="st0" d="M40.92,54.25c1.17,7.35-5.22,14.47-14.27,15.9c-9.05,1.44-17.33-3.35-18.5-10.7
			C6.99,52.1,39.76,46.9,40.92,54.25z"/>
		<path class="st1" d="M29.5,50.74c1.21,3.68,1.14,7.86,0.26,11.51c-0.7,2.91-1.92,5.67-3.68,7.97c0.19-0.02,0.38-0.04,0.57-0.07
			c9.05-1.44,15.44-8.56,14.27-15.9C40.48,51.45,35.47,50.48,29.5,50.74z"/>
		<path class="st0" d="M61.69,30.98l-1.2,0.19l-6.78-23.5C49.35-6.85,39.58-16.39,26.61-18.88c0.08-1.07,0.05-2.16-0.13-3.27
			C25.25-29.93,17.94-35.23,10.15-34C2.37-32.76-2.94-25.45-1.71-17.66c0.2,1.23,0.56,2.39,1.03,3.48
			C-12.21-7.42-18.77,5.05-17.65,19l0.7,24.47l-1.78,0.28c-5.8,0.92-9.75,6.37-8.83,12.17l0,0c0.92,5.8,6.37,9.75,12.17,8.83
			l80.42-12.77c5.8-0.92,9.75-6.37,8.83-12.17l0,0C72.94,34.01,67.49,30.06,61.69,30.98z M15.14-23.4c0,0.07,0.02,0.29,0.01,0.43
			c0,0.02,0,0.03-0.01,0.05c-0.06,0.26-0.11,0.52-0.19,0.77c-0.01,0.03-0.02,0.06-0.04,0.08c-0.02,0.04-0.24,0.48-0.38,0.69
			c-0.01,0.01-0.02,0.02-0.03,0.04c-0.17,0.22-0.37,0.42-0.57,0.61c-0.02,0.02-0.05,0.04-0.08,0.06c-0.01,0-0.01,0.01-0.02,0.01
			c-0.16,0.1-0.49,0.31-0.64,0.4c-0.01,0-0.01,0.01-0.02,0.01c-0.01,0.01-0.03,0.02-0.04,0.02c-0.02,0.01-0.03,0.01-0.05,0.02
			c-0.26,0.09-0.53,0.17-0.79,0.24c-0.03,0.01-0.07,0.01-0.1,0.02c-0.01,0-0.01,0-0.02,0c-0.17,0.01-0.61,0.02-0.79,0.02
			c-0.01,0-0.02,0-0.03,0c-0.02,0-0.04,0-0.05,0c-0.02,0-0.04-0.01-0.06-0.01c-0.17-0.04-0.57-0.14-0.74-0.18c0,0-0.01,0-0.01,0
			c-0.01,0-0.02-0.01-0.03-0.01c-0.02-0.01-0.04-0.01-0.06-0.02c-0.01,0-0.02-0.01-0.03-0.01c-0.17-0.09-0.49-0.27-0.66-0.36
			c-0.01,0-0.01-0.01-0.02-0.01c-0.04-0.02-0.07-0.05-0.1-0.08c-0.2-0.18-0.41-0.36-0.59-0.56c-0.02-0.02-0.03-0.04-0.05-0.06
			c-0.33-0.41-0.54-0.87-0.62-1.39c-0.01-0.26-0.01-0.52-0.02-0.78c0.06-0.51,0.24-0.97,0.54-1.39c0.03-0.03,0.05-0.06,0.08-0.08
			c0.05-0.1,0.09-0.21,0.15-0.31c0.15-0.35,0.38-0.63,0.69-0.87c0.3-0.26,0.63-0.43,1.01-0.51c0.37-0.15,0.75-0.19,1.15-0.13
			c0.04,0.01,0.08,0.01,0.11,0.02c0.02,0,0.03,0.01,0.05,0.01c0.25,0.06,0.51,0.12,0.77,0.19c0.06,0.02,0.11,0.03,0.16,0.06
			c0.25,0.12,0.48,0.25,0.72,0.39c0.02,0.01,0.04,0.02,0.05,0.04c0.21,0.16,0.4,0.36,0.59,0.55c0.01,0.01,0.03,0.03,0.04,0.04
			c0.36,0.47,0.61,0.96,0.69,1.55C15.15-23.7,15.14-23.47,15.14-23.4z"/>
		<path class="st2" d="M-8.04,41.59c-4.94-27.73-0.14-47,14.81-52.91c-8.38-5.59-5.79-14.65-1.73-20.81
			c-4.84,2.91-7.69,8.55-6.75,14.47c0.2,1.23,0.56,2.39,1.03,3.48C-12.21-7.42-18.77,5.05-17.65,19l0.7,24.47l-1.78,0.28
			c-5.8,0.92-9.75,6.37-8.83,12.17l0,0c0.92,5.8,6.37,9.75,12.17,8.83l5.22-0.83c-8.97-0.33-13.72-13.4-2.47-18.12
			C-12.58,45.78-8.36,41.79-8.04,41.59z"/>
		<path class="st1" d="M61.69,30.98l-1.2,0.19l-6.78-23.5C49.35-6.85,39.58-16.39,26.61-18.88c0.08-1.07,0.05-2.16-0.13-3.27
			c-1-6.3-5.98-10.98-11.97-11.88c0.85,1.72,4.2,3.12,5.2,7.84c1.81,8.61-0.08,11.67,0.31,12.71c0.21,0.58,18.02,0.81,23.75,29.02
			c1.4,6.87,3.13,16.57-1.58,22.1c8.32,2.93,11.03,10.53,5.61,17.06l17.23-2.74c5.8-0.92,9.75-6.37,8.83-12.17l0,0
			C72.94,34.01,67.49,30.06,61.69,30.98z"/>
		<path class="st3" d="M61.69,30.98l-1.2,0.19l-0.26-2.51C58.9,29.25,9.9,41.37-16.98,40.11l0.03,3.3
			C-7.6,46.15,52.4,38.12,61.69,30.98z"/>
		<path class="st4" d="M5.53-6.11C4.58-7.46,2.81-8.14,1.2-7.78C1.07-7.75,0.95-7.69,0.82-7.66c-0.01,0-0.02-0.01-0.04-0.01
			c-1.47,0-2.7,0.48-3.87,1.35c-1.64,1.21-2.9,2.93-3.75,4.76c-1.03,2.23-1.34,5.07,0.61,6.91c1.81,1.7,4.59,1.47,6.77,0.72
			c3.27-1.13,6.01-4.62,6.07-8.11C6.63-3.52,6.38-4.87,5.53-6.11z"/>
		<path class="st4" d="M-2.65,11.08c-0.21-0.47-0.53-0.85-0.94-1.15l-0.65-0.36c-0.49-0.19-0.99-0.24-1.51-0.16l-0.33,0.05
			c-0.4,0.05-0.75,0.19-1.07,0.42c-0.34,0.17-0.61,0.42-0.83,0.74c-0.24,0.3-0.39,0.64-0.45,1.02c-0.13,0.37-0.15,0.75-0.07,1.15
			c0.07,0.25,0.15,0.5,0.22,0.75c0.21,0.47,0.53,0.85,0.94,1.15l0.65,0.36c0.49,0.19,0.99,0.24,1.51,0.16l0.33-0.05
			c0.4-0.05,0.75-0.19,1.07-0.42c0.34-0.17,0.61-0.42,0.83-0.74c0.24-0.3,0.39-0.64,0.45-1.02c0.13-0.37,0.15-0.75,0.07-1.15
			C-2.5,11.58-2.58,11.33-2.65,11.08z"/>
		<path class="st4" d="M-0.79,53.08c-5.49-2.12-11.8-1.59-17.56-2.79c-3.51-0.73-4.15,4.88-0.62,5.56c6,1.17,13.09,2.16,18.38-1.49
			C-0.11,54.03-0.29,53.27-0.79,53.08z"/>
		<path class="st4" d="M9.2,50.71l-3.94,0.56c-2.09,0.29-1.57,3.6,0.51,3.23l3.92-0.69C11.68,53.46,11.2,50.43,9.2,50.71z"/>
		<path class="st5" d="M23.91,71.37c-6.84,0-13.23-3.76-16.5-9.93l1.71-0.91c3.35,6.32,10.36,9.81,17.42,8.69
			c7.07-1.12,12.65-6.61,13.87-13.66l1.91,0.33c-1.37,7.86-7.59,13.99-15.48,15.24C25.86,71.3,24.88,71.37,23.91,71.37z"/>
		<path class="st5" d="M-17.08,65.86c-2.43,0-4.79-0.76-6.79-2.22c-2.51-1.82-4.16-4.51-4.64-7.57c-1-6.32,3.32-12.27,9.64-13.28
			l0.93-0.15l-0.67-23.61C-19.74,5.09-13.5-7.43-1.89-14.59c-0.36-0.97-0.63-1.95-0.78-2.92C-3.98-25.81,1.7-33.64,10-34.96
			c8.3-1.32,16.13,4.36,17.44,12.66c0.14,0.85,0.19,1.73,0.18,2.63C40.48-16.87,50.3-7.06,54.65,7.39l6.54,22.69l0.35-0.05
			c6.33-1.01,12.28,3.32,13.28,9.64c1,6.32-3.32,12.27-9.64,13.28l-80.42,12.77C-15.85,65.81-16.47,65.86-17.08,65.86z M12.4-33.21
			c-0.69,0-1.39,0.05-2.09,0.17C3.06-31.89-1.9-25.06-0.75-17.82c0.17,1.08,0.5,2.17,0.96,3.24l0.34,0.79l-0.74,0.44
			c-11.42,6.7-17.58,18.76-16.5,32.28l0.72,25.37l-2.62,0.41c-5.26,0.84-8.86,5.8-8.03,11.06c0.41,2.55,1.78,4.79,3.87,6.3
			c2.09,1.52,4.64,2.13,7.19,1.72l80.42-12.77c2.55-0.41,4.79-1.78,6.3-3.87c1.52-2.09,2.13-4.64,1.72-7.19
			c-0.84-5.26-5.81-8.86-11.06-8.03l-2.04,0.33L52.79,7.94C48.5-6.3,39.14-15.48,26.43-17.92l-0.85-0.16l0.06-0.86
			c0.07-1.05,0.04-2.07-0.12-3.04C24.49-28.53,18.82-33.21,12.4-33.21z"/>
		<path class="st5" d="M12.02-18.39c-2.38,0-4.47-1.73-4.86-4.15c-0.43-2.68,1.41-5.21,4.09-5.63c2.67-0.43,5.21,1.41,5.63,4.09
			c0.43,2.68-1.41,5.21-4.09,5.63C12.54-18.41,12.28-18.39,12.02-18.39z M12.03-26.3c-0.16,0-0.31,0.01-0.47,0.04
			C9.94-26,8.82-24.47,9.08-22.85c0.26,1.62,1.79,2.73,3.41,2.48c1.62-0.26,2.73-1.79,2.48-3.41C14.74-25.25,13.47-26.3,12.03-26.3z
			"/>
		<path class="st5" d="M49.38-21.72c0.57,0.32,1.13,0.67,1.68,1.04c0.25,0.17,0.49,0.34,0.73,0.52c0.12,0.09,0.24,0.18,0.36,0.27
			c0.29,0.21-0.5-0.4-0.09-0.07c1,0.81,1.94,1.68,2.81,2.63c0.42,0.46,0.8,0.97,1.22,1.44c-0.17-0.19-0.34-0.44-0.07-0.09
			c0.09,0.12,0.18,0.24,0.27,0.36c0.19,0.27,0.38,0.54,0.56,0.81c0.71,1.07,1.33,2.2,1.86,3.37c0.29,0.62,1.1,1.16,1.74,1.34
			c0.7,0.19,1.62,0.11,2.24-0.29c1.43-0.92,1.72-2.5,1.04-3.98c-2.36-5.17-6.48-9.56-11.41-12.37c-1.32-0.75-3.24-0.36-3.98,1.04
			C47.6-24.32,47.96-22.52,49.38-21.72L49.38-21.72z"/>
		<path class="st5" d="M58.16-25.35c1.04,1.13,2.08,2.25,3.13,3.38c0.26,0.28,0.58,0.48,0.94,0.6c0.35,0.18,0.72,0.27,1.12,0.25
			c0.4,0.02,0.77-0.07,1.12-0.25c0.36-0.12,0.67-0.32,0.94-0.6c0.51-0.55,0.89-1.28,0.85-2.06c-0.03-0.26-0.07-0.52-0.1-0.77
			c-0.14-0.49-0.39-0.92-0.75-1.28c-1.04-1.13-2.08-2.25-3.13-3.38c-0.26-0.28-0.58-0.48-0.94-0.6c-0.35-0.18-0.72-0.27-1.12-0.25
			c-0.4-0.02-0.77,0.07-1.12,0.25c-0.36,0.12-0.67,0.32-0.94,0.6c-0.51,0.55-0.89,1.28-0.85,2.06c0.03,0.26,0.07,0.52,0.1,0.77
			C57.55-26.14,57.8-25.72,58.16-25.35L58.16-25.35z"/>
		<path class="st5" d="M-33.03,2.89c0.16-0.47,0.34-0.94,0.52-1.41c0.15-0.37-0.08,0.14-0.1,0.23c0.02-0.1,0.09-0.21,0.14-0.31
			c0.1-0.23,0.21-0.45,0.32-0.68c0.44-0.9,0.94-1.77,1.49-2.61c0.26-0.4,0.54-0.78,0.81-1.16c0.3-0.41-0.32,0.4-0.1,0.13
			c0.07-0.09,0.14-0.17,0.21-0.26c0.16-0.19,0.32-0.39,0.48-0.58c0.66-0.76,1.36-1.47,2.1-2.14c1.13-1.02,1.12-3.09,0-4.12
			c-1.21-1.11-2.91-1.09-4.12,0c-3.4,3.07-5.9,7.03-7.38,11.36c-0.49,1.44,0.56,3.25,2.03,3.58C-34.99,5.29-33.55,4.44-33.03,2.89
			L-33.03,2.89z"/>
		<path class="st5" d="M-39.67-4.01c1.06-1.46,2.12-2.92,3.18-4.38c0.21-0.33,0.33-0.69,0.35-1.08c0.09-0.39,0.07-0.77-0.05-1.16
			c-0.19-0.68-0.71-1.41-1.34-1.74c-0.68-0.36-1.49-0.54-2.24-0.29c-0.23,0.1-0.46,0.2-0.7,0.29c-0.44,0.26-0.79,0.61-1.04,1.04
			c-1.06,1.46-2.12,2.92-3.18,4.38c-0.21,0.33-0.33,0.69-0.35,1.08c-0.09,0.39-0.07,0.77,0.05,1.16c0.19,0.68,0.71,1.41,1.34,1.74
			c0.68,0.36,1.49,0.54,2.24,0.29c0.23-0.1,0.46-0.2,0.7-0.29C-40.28-3.22-39.93-3.57-39.67-4.01L-39.67-4.01z"/>
	</g>
</g>
<polygon points="70.6,60.94 70.6,70.22 61.95,70.22 -30.03,-21.76 -30.03,-30.41 -20.75,-30.41 "/>
</svg>
